<?xml version="1.0" encoding="iso-8859-1"?>
<!-- Generator: Adobe Illustrator 19.0.0, SVG Export Plug-In . SVG Version: 6.00 Build 0)  -->
<svg version="1.1" id="Capa_1" xmlns="http://www.w3.org/2000/svg" xmlns:xlink="http://www.w3.org/1999/xlink" x="0px" y="0px"
	 viewBox="0 0 496.485 496.485" style="enable-background:new 0 0 496.485 496.485;" xml:space="preserve">
<circle style="fill:#F16051;" cx="248.242" cy="259.879" r="236.606"/>
<path style="fill:#4FBF9F;" d="M394.861,425.891V59.733c0-29.479-24.048-52.752-52.751-52.752H107.83v418.909H394.861z"/>
<path style="fill:#193651;" d="M394.861,432.873H107.83c-3.879,0-6.982-3.103-6.982-6.982V6.982c0-3.879,3.103-6.982,6.982-6.982
	h234.279c33.358,0,59.733,27.152,59.733,59.733v366.158C401.842,429.77,398.739,432.873,394.861,432.873z M114.036,418.909h273.842
	V59.733c0-25.6-20.945-46.545-46.545-46.545H114.036V418.909z"/>
<path style="fill:#FFFFFF;" d="M367.709,405.721V59.733c0-14.739-11.636-26.376-26.376-26.376H134.206v371.588h233.503V405.721z"/>
<g>
	<rect x="250.57" y="368.485" style="fill:#193651;" width="13.188" height="13.188"/>
	<rect x="287.03" y="368.485" style="fill:#193651;" width="13.188" height="13.188"/>
	<rect x="323.491" y="368.485" style="fill:#193651;" width="13.188" height="13.188"/>
</g>
<path style="fill:#FDBF5E;" d="M36.461,69.818h252.897V59.733c0-29.479,24.048-52.752,52.752-52.752H99.297
	C65.164,6.982,36.461,34.909,36.461,69.818z"/>
<g>
	<path style="fill:#193651;" d="M290.133,76.8H36.461c-3.879,0-6.982-3.103-6.982-6.982C29.479,31.03,60.509,0,99.297,0h243.588
		c3.879,0,6.982,3.103,6.982,6.982s-3.103,6.982-6.982,6.982c-25.6,0-46.545,20.945-46.545,46.545v10.085
		C296.339,73.697,293.236,76.8,290.133,76.8z M44.218,62.836h238.933v-3.103c0-18.618,8.533-35.685,21.721-46.545H99.297
		C70.594,13.188,47.321,34.909,44.218,62.836z"/>
	<rect x="155.927" y="126.448" style="fill:#193651;" width="124.121" height="13.188"/>
	<rect x="155.927" y="168.339" style="fill:#193651;" width="124.121" height="13.188"/>
</g>
<rect x="38.788" y="213.333" style="fill:#E1E6E9;" width="418.909" height="114.036"/>
<path style="fill:#193651;" d="M457.697,334.352H38.788c-3.879,0-6.982-3.103-6.982-6.982V213.333c0-3.879,3.103-6.982,6.982-6.982
	h418.909c3.879,0,6.982,3.103,6.982,6.982V327.37C464.679,331.249,461.576,334.352,457.697,334.352z M45.77,320.388h405.721V219.539
	H45.77V320.388z"/>
<rect x="65.42" y="239.957" style="fill:#FFFFFF;" width="365.382" height="60.509"/>
<g>
	<path style="fill:#193651;" d="M95.418,280.824l-3.879,8.533h-6.982l16.291-37.236h6.982l16.291,37.236h-6.982l-3.879-8.533H95.418
		z M110.933,274.618l-6.982-15.515l-6.982,15.515H110.933z"/>
	<path style="fill:#193651;" d="M157.479,255.224c2.327,2.327,3.879,5.43,3.879,10.085s-1.552,7.758-3.879,10.085
		s-6.982,3.103-12.412,3.103h-6.206v10.861h-6.206v-37.236h12.412C150.497,252.121,154.376,252.897,157.479,255.224z
		 M152.824,270.739c1.552-1.552,1.552-3.103,1.552-5.43s-0.776-4.655-2.327-5.43c-1.552-0.776-3.879-1.552-7.758-1.552h-6.206
		v14.739h6.982C148.945,272.291,151.273,271.515,152.824,270.739z"/>
	<path style="fill:#193651;" d="M197.042,255.224c2.327,2.327,3.879,5.43,3.879,10.085s-1.552,7.758-3.879,10.085
		c-2.327,2.327-6.982,3.103-12.412,3.103h-6.206v10.861h-6.206v-37.236h12.412C190.061,252.121,193.939,252.897,197.042,255.224z
		 M192.388,270.739c1.552-1.552,1.552-3.103,1.552-5.43s-0.776-4.655-2.327-5.43c-1.552-0.776-3.879-1.552-7.758-1.552h-5.43v14.739
		h6.982C188.509,272.291,190.836,271.515,192.388,270.739z"/>
	<path style="fill:#193651;" d="M240.485,263.758c0,6.206-2.327,10.085-7.758,11.636l9.309,13.188h-7.758l-8.533-12.412h-8.533
		v12.412h-6.206v-37.236h13.964c5.43,0,9.309,0.776,12.412,3.103C239.709,256.776,240.485,259.879,240.485,263.758z
		 M232.727,269.188c1.552-0.776,1.552-3.103,1.552-5.43c0-2.327-0.776-3.879-2.327-4.655c-1.552-0.776-3.879-1.552-6.982-1.552
		h-7.758v13.188h7.758C228.848,270.739,231.176,269.964,232.727,269.188z"/>
	<path style="fill:#193651;" d="M283.927,283.927c-3.879,3.879-8.533,5.43-13.964,5.43c-5.43,0-10.085-1.552-13.964-5.43
		s-5.43-8.533-5.43-13.964c0-5.43,1.552-10.085,5.43-13.964s8.533-5.43,13.964-5.43c5.43,0,10.085,1.552,13.964,5.43
		s5.43,8.533,5.43,13.964C289.358,275.394,287.806,280.048,283.927,283.927z M279.273,260.655c-2.327-2.327-5.43-3.879-9.309-3.879
		c-3.879,0-6.982,1.552-9.309,3.879s-3.879,5.43-3.879,9.309c0,3.879,1.552,6.982,3.879,9.309s5.43,3.879,9.309,3.879
		c3.879,0,6.982-1.552,9.309-3.879s3.879-5.43,3.879-9.309C283.152,266.861,282.376,262.982,279.273,260.655z"/>
	<path style="fill:#193651;" d="M317.285,288.582h-6.982l-14.739-37.236h6.982l11.636,27.152l11.636-27.152h6.982L317.285,288.582z"
		/>
	<path style="fill:#193651;" d="M366.158,252.121v6.206h-19.394v10.085h17.842v5.43h-17.842v10.085h20.17v6.206h-26.376v-37.236
		h25.6V252.121z"/>
	<path style="fill:#193651;" d="M406.497,256.776c3.879,3.103,5.43,7.758,5.43,13.188c0,5.43-1.552,10.085-5.43,13.964
		c-3.103,3.103-8.533,4.655-15.515,4.655H378.57v-37.236h12.412C397.964,252.121,402.618,253.673,406.497,256.776z M405.721,270.739
		c0-8.533-4.655-12.412-14.739-12.412h-6.206v25.6h6.982c4.655,0,7.758-0.776,10.085-3.103
		C404.17,277.721,405.721,274.618,405.721,270.739z"/>
</g>
<g>
</g>
<g>
</g>
<g>
</g>
<g>
</g>
<g>
</g>
<g>
</g>
<g>
</g>
<g>
</g>
<g>
</g>
<g>
</g>
<g>
</g>
<g>
</g>
<g>
</g>
<g>
</g>
<g>
</g>
</svg>
