<?xml version="1.0" encoding="utf-8"?>
<!-- Generator: Adobe Illustrator 19.2.1, SVG Export Plug-In . SVG Version: 6.00 Build 0)  -->
<svg version="1.1" id="Layer_1" xmlns="http://www.w3.org/2000/svg" xmlns:xlink="http://www.w3.org/1999/xlink" x="0px" y="0px"
	 viewBox="0 0 260 260" style="enable-background:new 0 0 260 260;" xml:space="preserve">
<style type="text/css">
	.st0{fill:#E6EEF4;}
	.st1{fill:#518FCB;}
	.st2{fill:#FFFFFF;}
	.st3{fill:#F3DD95;}
</style>
<g id="XMLID_112_">
	<ellipse id="XMLID_344_" class="st0" cx="131.8" cy="257.1" rx="24.8" ry="2.9"/>
	<g id="XMLID_248_">
		<g id="XMLID_298_">
			<path id="XMLID_299_" class="st1" d="M133.4,203c-0.3,0-0.6-0.2-0.6-0.5c-0.1-0.3,0.1-0.7,0.5-0.8c1.6-0.4,3.5-0.9,4.8-1.4
				c0.3-0.1,0.7,0.1,0.8,0.4c0.1,0.3-0.1,0.7-0.4,0.8c-1.3,0.4-3.3,1-4.9,1.4C133.5,203,133.5,203,133.4,203z M128.5,202.7
				c-0.1,0-0.1,0-0.2,0c-2.2-0.6-4.6-1.4-4.8-1.4c0,0,0,0,0,0c-0.3-0.1-0.5-0.5-0.4-0.8c0.1-0.3,0.4-0.5,0.8-0.4c0,0,0.1,0,0.1,0
				l0,0c0,0,0,0,0,0c0,0,2.4,0.8,4.7,1.4c0.3,0.1,0.5,0.4,0.4,0.8C129,202.5,128.8,202.7,128.5,202.7z M143,200.1
				c-0.3,0-0.5-0.2-0.6-0.4c-0.1-0.3,0.1-0.7,0.4-0.8c1.3-0.4,2.9-1,4.7-1.7c0.3-0.1,0.7,0.1,0.8,0.4c0.1,0.3-0.1,0.7-0.4,0.8
				c-1.8,0.7-3.4,1.2-4.8,1.7C143.2,200.1,143.1,200.1,143,200.1z M118.9,199.7c-0.1,0-0.1,0-0.2,0c-1.4-0.5-3-1-4.8-1.7
				c-0.3-0.1-0.5-0.5-0.4-0.8c0.1-0.3,0.5-0.5,0.8-0.4c1.8,0.6,3.4,1.2,4.7,1.7c0.3,0.1,0.5,0.5,0.4,0.8
				C119.4,199.5,119.1,199.7,118.9,199.7z M152.5,196.6c-0.3,0-0.5-0.2-0.6-0.4c-0.1-0.3,0-0.7,0.4-0.8c1.5-0.6,3.1-1.2,4.7-1.8
				c0.3-0.1,0.7,0,0.8,0.3c0.1,0.3,0,0.7-0.3,0.8c-1.6,0.7-3.2,1.3-4.7,1.8C152.6,196.6,152.6,196.6,152.5,196.6z M109.4,196.2
				c-0.1,0-0.2,0-0.2,0c-1.5-0.6-3.1-1.2-4.7-1.9c-0.3-0.1-0.5-0.5-0.3-0.8c0.1-0.3,0.5-0.5,0.8-0.3c1.6,0.7,3.2,1.3,4.7,1.9
				c0.3,0.1,0.5,0.5,0.4,0.8C109.9,196,109.7,196.2,109.4,196.2z M161.8,192.9c-0.2,0-0.5-0.1-0.6-0.4c-0.1-0.3,0-0.7,0.3-0.8
				c1.5-0.7,3.1-1.3,4.6-2.1c0.3-0.1,0.7,0,0.8,0.3c0.1,0.3,0,0.7-0.3,0.8c-1.5,0.7-3.1,1.4-4.6,2.1
				C162,192.8,161.9,192.9,161.8,192.9z M100.1,192.3c-0.1,0-0.2,0-0.3-0.1c-1.5-0.7-3.1-1.4-4.6-2.1c-0.3-0.2-0.5-0.5-0.3-0.8
				c0.2-0.3,0.5-0.4,0.8-0.3c1.5,0.7,3,1.4,4.6,2.1c0.3,0.1,0.5,0.5,0.3,0.8C100.6,192.2,100.4,192.3,100.1,192.3z M170.9,188.6
				c-0.2,0-0.5-0.1-0.6-0.3c-0.2-0.3,0-0.7,0.3-0.9c1.6-0.8,3-1.6,4.4-2.4c0.3-0.2,0.7-0.1,0.9,0.2c0.2,0.3,0.1,0.7-0.2,0.9
				c-1.4,0.8-2.9,1.6-4.4,2.4C171.1,188.6,171,188.6,170.9,188.6z M91,188c-0.1,0-0.2,0-0.3-0.1c-1.6-0.8-3.1-1.7-4.4-2.5
				c-0.3-0.2-0.4-0.6-0.2-0.9c0.2-0.3,0.6-0.4,0.9-0.2c1.3,0.8,2.8,1.6,4.3,2.5c0.3,0.2,0.4,0.5,0.3,0.9C91.5,187.9,91.3,188,91,188
				z M179.5,183.4c-0.2,0-0.4-0.1-0.5-0.2c-0.2-0.3-0.2-0.7,0.1-0.9c1.2-1,2.3-2.2,3.3-3.5c0.2-0.3,0.6-0.3,0.9-0.1
				c0.3,0.2,0.3,0.6,0.1,0.9c-1.1,1.4-2.3,2.7-3.5,3.7C179.8,183.3,179.6,183.4,179.5,183.4z M82.7,182.5c-0.2,0-0.3-0.1-0.4-0.2
				c-1.2-1.2-2.3-2.5-3.3-3.9c-0.2-0.3-0.1-0.7,0.2-0.9c0.3-0.2,0.7-0.1,0.9,0.2c0.9,1.4,2,2.6,3.2,3.7c0.3,0.2,0.3,0.6,0,0.9
				C83,182.4,82.8,182.5,82.7,182.5z M185.6,175.5c-0.1,0-0.2,0-0.3-0.1c-0.3-0.2-0.4-0.5-0.3-0.9c0.7-1.4,1.4-2.9,1.9-4.6
				c0.1-0.3,0.5-0.5,0.8-0.4c0.3,0.1,0.5,0.5,0.4,0.8c-0.6,1.7-1.2,3.3-2,4.7C186.1,175.3,185.8,175.5,185.6,175.5z M77,174.3
				c-0.2,0-0.5-0.1-0.6-0.4c-0.7-1.5-1.3-3.1-1.8-4.8c-0.1-0.3,0.1-0.7,0.4-0.8c0.4-0.1,0.7,0.1,0.8,0.4c0.5,1.6,1.1,3.2,1.7,4.6
				c0.1,0.3,0,0.7-0.3,0.8C77.1,174.3,77.1,174.3,77,174.3z M188.9,166c0,0-0.1,0-0.1,0c-0.3-0.1-0.6-0.4-0.5-0.8
				c0.3-1.6,0.6-3.2,0.8-4.9c0-0.3,0.3-0.6,0.7-0.6c0.3,0,0.6,0.4,0.6,0.7c-0.2,1.7-0.5,3.4-0.8,5C189.4,165.8,189.2,166,188.9,166z
				 M74,164.7c-0.3,0-0.6-0.2-0.6-0.5c-0.3-1.7-0.5-3.4-0.7-5.1c0-0.3,0.2-0.7,0.6-0.7c0.4-0.1,0.7,0.2,0.7,0.6
				c0.1,1.6,0.3,3.3,0.6,4.9c0.1,0.3-0.2,0.7-0.5,0.7C74.1,164.7,74.1,164.7,74,164.7z M189.9,156.1c-0.3,0-0.6-0.3-0.6-0.6v-5
				c0-0.3,0.3-0.6,0.6-0.6c0.3,0,0.6,0.3,0.6,0.6v5C190.5,155.8,190.2,156.1,189.9,156.1z M73.2,154.7c-0.3,0-0.6-0.3-0.6-0.6v-5
				c0-0.3,0.3-0.6,0.6-0.6s0.6,0.3,0.6,0.6v5C73.9,154.4,73.6,154.7,73.2,154.7z M189.9,146c-0.3,0-0.6-0.3-0.6-0.6v-5
				c0-0.3,0.3-0.6,0.6-0.6c0.3,0,0.6,0.3,0.6,0.6v5C190.5,145.8,190.2,146,189.9,146z M73.2,144.6c-0.3,0-0.6-0.3-0.6-0.6v-5
				c0-0.3,0.3-0.6,0.6-0.6s0.6,0.3,0.6,0.6v5C73.9,144.3,73.6,144.6,73.2,144.6z M189.9,136c-0.3,0-0.6-0.3-0.6-0.6v-5
				c0-0.3,0.3-0.6,0.6-0.6c0.3,0,0.6,0.3,0.6,0.6v5C190.5,135.7,190.2,136,189.9,136z M73.2,134.6c-0.3,0-0.6-0.3-0.6-0.6v-5
				c0-0.3,0.3-0.6,0.6-0.6s0.6,0.3,0.6,0.6v5C73.9,134.3,73.6,134.6,73.2,134.6z M189.9,125.9c-0.3,0-0.6-0.3-0.6-0.6v-5
				c0-0.3,0.3-0.6,0.6-0.6c0.3,0,0.6,0.3,0.6,0.6v5C190.5,125.7,190.2,125.9,189.9,125.9z M73.2,124.5c-0.3,0-0.6-0.3-0.6-0.6v-5
				c0-0.3,0.3-0.6,0.6-0.6s0.6,0.3,0.6,0.6v5C73.9,124.2,73.6,124.5,73.2,124.5z M189.9,115.9c-0.3,0-0.6-0.3-0.6-0.6v-5
				c0-0.3,0.3-0.6,0.6-0.6c0.3,0,0.6,0.3,0.6,0.6v5C190.5,115.6,190.2,115.9,189.9,115.9z M73.2,114.5c-0.3,0-0.6-0.3-0.6-0.6v-5
				c0-0.3,0.3-0.6,0.6-0.6s0.6,0.3,0.6,0.6v5C73.9,114.2,73.6,114.5,73.2,114.5z M189.9,105.8c-0.3,0-0.6-0.3-0.6-0.6v-5
				c0-0.3,0.3-0.6,0.6-0.6c0.3,0,0.6,0.3,0.6,0.6v5C190.5,105.6,190.2,105.8,189.9,105.8z M73.2,104.4c-0.3,0-0.6-0.3-0.6-0.6v-5
				c0-0.3,0.3-0.6,0.6-0.6s0.6,0.3,0.6,0.6v5C73.9,104.1,73.6,104.4,73.2,104.4z M189.9,95.8c-0.3,0-0.6-0.3-0.6-0.6v-5
				c0-0.3,0.3-0.6,0.6-0.6c0.3,0,0.6,0.3,0.6,0.6v5C190.5,95.5,190.2,95.8,189.9,95.8z M73.2,94.4c-0.3,0-0.6-0.3-0.6-0.6v-5
				c0-0.3,0.3-0.6,0.6-0.6s0.6,0.3,0.6,0.6v5C73.9,94.1,73.6,94.4,73.2,94.4z M189.9,85.7c-0.3,0-0.6-0.3-0.6-0.6v-5
				c0-0.3,0.3-0.6,0.6-0.6c0.3,0,0.6,0.3,0.6,0.6v5C190.5,85.5,190.2,85.7,189.9,85.7z M73.2,84.3c-0.3,0-0.6-0.3-0.6-0.6v-5
				c0-0.3,0.3-0.6,0.6-0.6s0.6,0.3,0.6,0.6v5C73.9,84,73.6,84.3,73.2,84.3z M189.1,75.9c-0.2,0-0.4-0.1-0.5-0.3
				c-0.7-1-2-1.8-3.8-2.5c-0.3-0.1-0.5-0.5-0.4-0.8c0.1-0.3,0.5-0.5,0.8-0.4c2.1,0.7,3.6,1.7,4.4,2.9c0.2,0.3,0.1,0.7-0.1,0.9
				C189.3,75.8,189.2,75.9,189.1,75.9z M75.1,74.8c-0.2,0-0.4-0.1-0.5-0.2c-0.2-0.3-0.2-0.7,0.1-0.9c1.1-0.9,2.7-1.7,4.8-2.2
				c0.4-0.1,0.7,0.1,0.8,0.4c0.1,0.3-0.1,0.7-0.4,0.8c-1.9,0.5-3.3,1.2-4.3,2C75.3,74.8,75.2,74.8,75.1,74.8z M180,72
				C180,72,180,72,180,72c-2.4-0.3-4.2-0.3-4.2-0.3l-0.8,0c-0.4,0-0.6-0.3-0.6-0.6c0-0.3,0.3-0.6,0.6-0.6c0,0,0,0,0,0l0.8,0
				c0,0,1.9,0,4.3,0.3c0.3,0,0.6,0.4,0.5,0.7C180.6,71.8,180.3,72,180,72z M84.5,71.9c-0.3,0-0.6-0.2-0.6-0.6c0-0.3,0.2-0.7,0.6-0.7
				c1.5-0.1,2.7-0.1,2.9-0.1l2.2,0c0.4,0,0.6,0.3,0.6,0.6c0,0.4-0.3,0.6-0.6,0.6l-2.2,0C87.2,71.7,86.1,71.7,84.5,71.9
				C84.6,71.9,84.6,71.9,84.5,71.9z M170,71.7C170,71.7,170,71.7,170,71.7l-5-0.1c-0.3,0-0.6-0.3-0.6-0.6c0-0.3,0.3-0.6,0.6-0.6
				c0,0,0,0,0,0l5,0.1c0.3,0,0.6,0.3,0.6,0.6C170.6,71.4,170.3,71.7,170,71.7z M94.6,71.7c-0.3,0-0.6-0.3-0.6-0.6
				c0-0.4,0.3-0.6,0.6-0.6l5-0.1c0,0,0,0,0,0c0.3,0,0.6,0.3,0.6,0.6c0,0.4-0.3,0.6-0.6,0.6L94.6,71.7C94.6,71.7,94.6,71.7,94.6,71.7
				z M159.9,71.6C159.9,71.6,159.9,71.6,159.9,71.6l-5-0.1c-0.3,0-0.6-0.3-0.6-0.6c0-0.3,0.3-0.6,0.6-0.6c0,0,0,0,0,0l5,0.1
				c0.3,0,0.6,0.3,0.6,0.6C160.6,71.3,160.3,71.6,159.9,71.6z M104.6,71.6c-0.3,0-0.6-0.3-0.6-0.6c0-0.4,0.3-0.6,0.6-0.6l5-0.1
				c0,0,0,0,0,0c0.3,0,0.6,0.3,0.6,0.6c0,0.4-0.3,0.6-0.6,0.6L104.6,71.6C104.6,71.6,104.6,71.6,104.6,71.6z M149.9,71.5
				C149.9,71.5,149.9,71.5,149.9,71.5l-5-0.1c-0.3,0-0.6-0.3-0.6-0.6c0-0.3,0.3-0.7,0.6-0.6l5,0.1c0.3,0,0.6,0.3,0.6,0.6
				C150.5,71.2,150.2,71.5,149.9,71.5z M114.7,71.4c-0.3,0-0.6-0.3-0.6-0.6c0-0.4,0.3-0.6,0.6-0.6l5-0.1c0.3,0,0.6,0.3,0.6,0.6
				c0,0.4-0.3,0.6-0.6,0.6L114.7,71.4C114.7,71.4,114.7,71.4,114.7,71.4z M139.8,71.4C139.8,71.4,139.8,71.4,139.8,71.4l-5-0.1
				c-0.3,0-0.6-0.3-0.6-0.6c0-0.3,0.3-0.6,0.6-0.6c0,0,0,0,0,0l5,0.1c0.3,0,0.6,0.3,0.6,0.6C140.5,71.1,140.2,71.4,139.8,71.4z
				 M124.7,71.3c-0.3,0-0.6-0.3-0.6-0.6c0-0.4,0.3-0.6,0.6-0.6l5-0.1c0,0,0,0,0,0c0.3,0,0.6,0.3,0.6,0.6c0,0.4-0.3,0.6-0.6,0.6
				L124.7,71.3C124.8,71.3,124.7,71.3,124.7,71.3z"/>
		</g>
		<g id="XMLID_249_">
			<g id="XMLID_296_">
				<path id="XMLID_67_" class="st1" d="M108.8,152.3c-0.1,0-0.3,0-0.4-0.1c-0.3-0.2-0.3-0.6-0.1-0.9l1.6-2c0.1-0.1,0.3-0.3,0.5-0.2
					c0.2,0,0.4,0.1,0.5,0.2c0.6,0.6,1.2,1.2,1.7,1.8c0.2,0.3,0.2,0.7,0,0.9c-0.3,0.3-0.7,0.2-0.9,0c-0.4-0.4-0.9-0.9-1.3-1.3
					l-1.2,1.4C109.1,152.2,108.9,152.3,108.8,152.3z"/>
			</g>
			<g id="XMLID_278_">
				<path id="XMLID_279_" class="st1" d="M134.6,161.6c-0.3,0-0.6-0.2-0.6-0.6c0-0.3,0.2-0.7,0.6-0.7c0.8-0.1,1.6-0.2,2.4-0.4
					c0.8-0.2,1.5-0.4,2.2-0.8c0.3-0.1,0.7,0,0.8,0.3c0.2,0.3,0,0.7-0.3,0.8c-0.8,0.4-1.6,0.7-2.5,0.9
					C136.4,161.4,135.5,161.5,134.6,161.6C134.6,161.6,134.6,161.6,134.6,161.6z M129.6,161.6C129.5,161.6,129.5,161.6,129.6,161.6
					c-1.8-0.2-3.5-0.6-5.1-1.1c-0.3-0.1-0.5-0.5-0.4-0.8c0.1-0.3,0.5-0.5,0.8-0.4c1.6,0.5,3.2,0.9,4.8,1.1c0.3,0,0.6,0.4,0.6,0.7
					C130.2,161.3,129.9,161.6,129.6,161.6z M120.1,158.4c-0.1,0-0.2,0-0.3-0.1c-1.4-0.8-2.9-1.8-4.3-2.9c-0.3-0.2-0.3-0.6-0.1-0.9
					c0.2-0.3,0.6-0.3,0.9-0.1c1.3,1.1,2.7,2,4.1,2.8c0.3,0.2,0.4,0.6,0.2,0.9C120.5,158.3,120.3,158.4,120.1,158.4z M143.2,157.1
					c-0.1,0-0.2,0-0.3-0.1c-0.3-0.2-0.4-0.6-0.2-0.9c0.1-0.1,0.1-0.2,0.2-0.4c0.6-1.1,0.9-2.4,0.9-3.6l0-0.2c0-0.4,0.3-0.8,0.6-0.8
					c0.3-0.1,0.6,0.1,0.7,0.5l0,0.5c0,1.5-0.4,2.9-1,4.2c-0.1,0.2-0.2,0.3-0.3,0.4C143.6,157,143.4,157.1,143.2,157.1z M142.4,147.8
					c-0.2,0-0.3-0.1-0.5-0.2c-0.2-0.3-0.5-0.5-0.8-0.7c-0.8-0.7-1.7-1.3-2.7-1.8l-0.5-0.3c-0.3-0.2-0.4-0.5-0.3-0.9
					c0.2-0.3,0.5-0.4,0.9-0.3l0.5,0.3c1,0.5,2,1.2,2.9,1.9c0.3,0.3,0.6,0.5,0.9,0.8c0.2,0.3,0.2,0.7,0,0.9
					C142.7,147.7,142.6,147.8,142.4,147.8z M133.6,143c-0.1,0-0.2,0-0.2,0c-1.2-0.5-2.3-0.9-3.5-1.3c-0.4-0.1-0.8-0.3-1.2-0.4
					c-0.3-0.1-0.5-0.5-0.4-0.8c0.1-0.3,0.5-0.5,0.8-0.4c0.4,0.1,0.8,0.3,1.2,0.4c1.2,0.4,2.4,0.8,3.6,1.3c0.3,0.1,0.5,0.5,0.4,0.8
					C134.1,142.8,133.9,143,133.6,143z M124.2,139.5c-0.1,0-0.1,0-0.2,0c-1-0.4-2.2-0.8-3.6-1.3c-0.4-0.1-0.8-0.3-1.1-0.5
					c-0.3-0.1-0.5-0.5-0.3-0.8c0.1-0.3,0.5-0.5,0.8-0.3c0.4,0.2,0.7,0.3,1.1,0.4c1.4,0.5,2.6,1,3.6,1.3c0.3,0.1,0.5,0.5,0.4,0.8
					C124.7,139.3,124.4,139.5,124.2,139.5z M114.9,135.5c-0.1,0-0.2,0-0.3-0.1c-1.3-0.8-2.7-1.6-3.9-2.5c-0.1-0.1-0.3-0.2-0.4-0.3
					c-0.3-0.2-0.3-0.6-0.1-0.9c0.2-0.3,0.6-0.3,0.9-0.1l0.3,0.3c1.2,0.9,2.5,1.7,3.8,2.5c0.3,0.2,0.4,0.6,0.2,0.9
					C115.4,135.4,115.2,135.5,114.9,135.5z M107.1,129.2c-0.2,0-0.4-0.1-0.5-0.2l-0.2-0.3c-1-1.3-1.8-2.7-2.5-4.1
					c-0.2-0.3,0-0.7,0.3-0.8c0.3-0.2,0.7,0,0.8,0.3c0.6,1.3,1.4,2.6,2.3,3.8l0.3,0.3c0.2,0.3,0.2,0.7-0.1,0.9
					C107.4,129.2,107.3,129.2,107.1,129.2z M102.9,120.2c-0.3,0-0.6-0.2-0.6-0.5c-0.2-1.2-0.3-2.5-0.3-3.7c0-0.1,0-0.3,0-0.4l0-0.3
					c0-0.3,0-0.5,0-0.8c0-0.3,0.3-0.6,0.7-0.6c0.3,0,0.6,0.3,0.6,0.7c0,0.2,0,0.5,0,0.7l0,0.3l0,0.4c0,1.2,0.1,2.3,0.3,3.5
					c0.1,0.3-0.2,0.7-0.5,0.7C103,120.2,103,120.2,102.9,120.2z M103.6,110.2c-0.1,0-0.2,0-0.2,0c-0.3-0.1-0.5-0.5-0.4-0.8
					c0.4-1,0.9-2,1.4-2.9c0.4-0.6,0.8-1.1,1.2-1.6c0.2-0.3,0.6-0.3,0.9-0.1s0.3,0.6,0.1,0.9c-0.4,0.5-0.8,1-1.1,1.5
					c-0.5,0.8-1,1.7-1.3,2.6C104.1,110.1,103.9,110.2,103.6,110.2z M109.8,102.4c-0.2,0-0.4-0.1-0.5-0.3c-0.2-0.3-0.2-0.7,0.1-0.9
					c0.6-0.4,1.2-0.9,1.8-1.2c0.8-0.5,1.7-1,2.6-1.5c0.3-0.2,0.7,0,0.9,0.3c0.2,0.3,0,0.7-0.3,0.9c-0.9,0.4-1.7,0.9-2.5,1.4
					c-0.6,0.4-1.1,0.7-1.7,1.2C110,102.3,109.9,102.4,109.8,102.4z M153.2,100.6c-0.1,0-0.2,0-0.3-0.1c-1.5-0.7-3-1.4-4.6-1.9
					c-0.3-0.1-0.5-0.5-0.4-0.8c0.1-0.3,0.5-0.5,0.8-0.4c1.6,0.6,3.2,1.2,4.7,2c0.3,0.2,0.4,0.5,0.3,0.9
					C153.6,100.5,153.4,100.6,153.2,100.6z M118.7,97.9c-0.3,0-0.5-0.2-0.6-0.4c-0.1-0.3,0.1-0.7,0.4-0.8c0.6-0.2,1.3-0.4,1.9-0.5
					c1-0.2,2-0.5,3.1-0.7c0.4-0.1,0.7,0.2,0.7,0.5c0.1,0.3-0.2,0.7-0.5,0.7c-1,0.2-2,0.4-3,0.6c-0.6,0.2-1.2,0.3-1.8,0.5
					C118.9,97.9,118.8,97.9,118.7,97.9z M143.7,97.3c0,0-0.1,0-0.1,0c-1.6-0.3-3.3-0.6-4.9-0.8c-0.3,0-0.6-0.4-0.6-0.7
					c0-0.3,0.4-0.6,0.7-0.6c1.7,0.2,3.4,0.5,5,0.8c0.3,0.1,0.6,0.4,0.5,0.8C144.2,97.1,144,97.3,143.7,97.3z M128.6,96.2
					c-0.3,0-0.6-0.3-0.6-0.6c0-0.4,0.2-0.7,0.6-0.7c0.8,0,1.6-0.1,2.4-0.1l0.7,0c0.7,0,1.3,0,2,0c0.3,0,0.6,0.3,0.6,0.7
					s-0.3,0.6-0.7,0.6c-0.6,0-1.3,0-1.9,0l-0.6,0C130.2,96.1,129.5,96.1,128.6,96.2C128.7,96.2,128.7,96.2,128.6,96.2z"/>
			</g>
			<g id="XMLID_276_">
				<path id="XMLID_50_" class="st1" d="M158.3,106.9c-0.1,0-0.2,0-0.3-0.1c-0.3-0.2-0.4-0.6-0.2-0.9l1.1-1.7
					c-0.5-0.4-1-0.8-1.5-1.2c-0.3-0.2-0.4-0.6-0.2-0.9c0.2-0.3,0.6-0.4,0.9-0.2c0.7,0.5,1.4,1,2.1,1.6c0.3,0.2,0.3,0.6,0.1,0.8
					l-1.4,2.1C158.7,106.8,158.5,106.9,158.3,106.9z"/>
			</g>
			<g id="XMLID_274_">
				<path id="XMLID_49_" class="st1" d="M154.6,112.5c-0.1,0-0.2,0-0.3-0.1c-0.3-0.2-0.4-0.6-0.2-0.9l1.8-2.8
					c0.2-0.3,0.6-0.4,0.9-0.2s0.4,0.6,0.2,0.9l-1.8,2.8C155,112.4,154.8,112.5,154.6,112.5z"/>
			</g>
			<g id="XMLID_272_">
				<path id="XMLID_48_" class="st1" d="M151.4,117.5c-0.2,0-0.3-0.1-0.4-0.2c-0.6-0.6-1.2-1.2-1.8-1.7c-0.3-0.2-0.3-0.6,0-0.9
					c0.2-0.3,0.6-0.3,0.9,0c0.4,0.4,0.9,0.8,1.3,1.2l1-1.5c0.2-0.3,0.6-0.4,0.9-0.2c0.3,0.2,0.4,0.6,0.2,0.9l-1.4,2.1
					C151.9,117.3,151.7,117.4,151.4,117.5C151.5,117.5,151.5,117.5,151.4,117.5z"/>
			</g>
			<g id="XMLID_254_">
				<path id="XMLID_255_" class="st1" d="M130.8,173.8C130.8,173.8,130.8,173.8,130.8,173.8c-1.7,0-3.5-0.1-5.2-0.3
					c-0.3,0-0.6-0.3-0.6-0.7c0-0.3,0.3-0.6,0.7-0.6c1.7,0.2,3.4,0.3,5.1,0.3c0.3,0,0.6,0.3,0.6,0.7
					C131.4,173.6,131.1,173.8,130.8,173.8z M135.9,173.8c-0.3,0-0.6-0.3-0.6-0.6c0-0.3,0.2-0.7,0.6-0.7c1.7-0.1,3.4-0.3,5-0.6
					c0.3-0.1,0.7,0.2,0.7,0.5c0.1,0.3-0.2,0.7-0.5,0.7C139.4,173.4,137.6,173.6,135.9,173.8C135.9,173.8,135.9,173.8,135.9,173.8z
					 M120.6,172.9c0,0-0.1,0-0.1,0c-1.7-0.3-3.4-0.7-5-1.3c-0.3-0.1-0.5-0.5-0.4-0.8c0.1-0.3,0.5-0.5,0.8-0.4
					c1.6,0.5,3.2,0.9,4.9,1.2c0.3,0.1,0.6,0.4,0.5,0.7C121.2,172.7,120.9,172.9,120.6,172.9z M145.9,171.9c-0.3,0-0.5-0.2-0.6-0.4
					c-0.1-0.3,0.1-0.7,0.4-0.8c1.6-0.5,3.1-1.2,4.6-1.9c0.3-0.1,0.7,0,0.9,0.3c0.2,0.3,0,0.7-0.3,0.9c-1.6,0.8-3.2,1.4-4.8,2
					C146.1,171.8,146,171.9,145.9,171.9z M110.9,169.8c-0.1,0-0.2,0-0.3-0.1c-1.2-0.6-2.4-1.3-3.6-2c-0.3-0.2-0.6-0.4-0.9-0.6
					c-0.3-0.2-0.4-0.6-0.2-0.9c0.2-0.3,0.6-0.4,0.9-0.2c0.3,0.2,0.6,0.4,0.9,0.6c1.1,0.7,2.3,1.3,3.5,1.9c0.3,0.2,0.5,0.5,0.3,0.8
					C111.3,169.6,111.1,169.8,110.9,169.8z M155,167.2c-0.2,0-0.4-0.1-0.5-0.3c-0.2-0.3-0.2-0.7,0.1-0.9c1.3-1,2.5-2.2,3.6-3.5
					c0.2-0.3,0.6-0.3,0.9-0.1c0.3,0.2,0.3,0.6,0.1,0.9c-1.1,1.4-2.4,2.6-3.8,3.7C155.3,167.2,155.1,167.2,155,167.2z M161.3,159.3
					c-0.1,0-0.2,0-0.2,0c-0.3-0.1-0.5-0.5-0.3-0.8c0.6-1.5,1-3.1,1.2-4.8c0-0.3,0.3-0.6,0.7-0.6c0.3,0,0.6,0.3,0.6,0.7
					c-0.2,1.8-0.6,3.5-1.3,5.1C161.8,159.2,161.6,159.3,161.3,159.3z M162.5,149.3c-0.3,0-0.6-0.2-0.6-0.6c-0.2-1.3-0.5-2.6-0.9-3.9
					c-0.1-0.3-0.2-0.6-0.3-0.9c-0.1-0.3,0-0.7,0.4-0.8c0.3-0.1,0.7,0,0.8,0.4c0.1,0.3,0.2,0.6,0.3,1c0.4,1.4,0.7,2.8,0.9,4.1
					C163.1,148.9,162.9,149.2,162.5,149.3C162.5,149.3,162.5,149.3,162.5,149.3z M158.8,139.8c-0.2,0-0.3-0.1-0.4-0.2
					c-1-1.4-2.1-2.6-3.4-3.7c-0.3-0.2-0.3-0.6-0.1-0.9c0.2-0.3,0.6-0.3,0.9-0.1c1.3,1.1,2.5,2.4,3.5,3.8c0.2,0.3,0.2,0.7-0.1,0.9
					C159,139.7,158.9,139.8,158.8,139.8z M151.2,133.1c-0.1,0-0.2,0-0.3-0.1c-0.2-0.1-0.5-0.3-0.7-0.4c-1.2-0.7-2.5-1.3-3.8-1.8
					c-0.3-0.1-0.5-0.5-0.4-0.8c0.1-0.3,0.5-0.5,0.8-0.4c1.3,0.5,2.7,1.1,4,1.8c0.3,0.1,0.5,0.3,0.8,0.4c0.3,0.2,0.4,0.6,0.2,0.9
					C151.6,133,151.4,133.1,151.2,133.1z M141.7,129.2c-0.1,0-0.1,0-0.2,0c-1.6-0.6-3.2-1.1-4.8-1.7c-0.3-0.1-0.5-0.5-0.4-0.8
					c0.1-0.3,0.5-0.5,0.8-0.4c1.6,0.6,3.2,1.1,4.8,1.7c0.3,0.1,0.5,0.5,0.4,0.8C142.2,129,142,129.2,141.7,129.2z M132.1,125.8
					c-0.1,0-0.1,0-0.2,0l-1.2-0.4c-1.2-0.4-2.3-0.8-3.6-1.3c-0.3-0.1-0.5-0.5-0.4-0.8c0.1-0.3,0.5-0.5,0.8-0.4
					c1.3,0.5,2.4,0.9,3.6,1.3l1.2,0.4c0.3,0.1,0.5,0.5,0.4,0.8C132.6,125.6,132.3,125.8,132.1,125.8z M122.9,121.4
					c-0.2,0-0.3-0.1-0.4-0.2c-0.5-0.5-1-1-1.4-1.6c-0.6-1-1-2.1-1-3.3c0-0.3,0.3-0.6,0.6-0.6c0,0,0,0,0,0c0.3,0,0.6,0.3,0.6,0.6
					c0,0.9,0.3,1.9,0.8,2.6c0.3,0.5,0.7,1,1.2,1.4c0.3,0.2,0.3,0.6,0,0.9C123.2,121.4,123.1,121.4,122.9,121.4z M145.7,112.4
					c-0.1,0-0.3,0-0.4-0.1c-0.9-0.6-1.8-1.2-2.7-1.7c-0.5-0.3-1.1-0.5-1.6-0.8c-0.3-0.1-0.5-0.5-0.3-0.8c0.1-0.3,0.5-0.5,0.8-0.3
					c0.6,0.2,1.2,0.5,1.7,0.8c1,0.5,2,1.1,2.9,1.8c0.3,0.2,0.4,0.6,0.2,0.9C146.1,112.3,145.9,112.4,145.7,112.4z M122.1,112.1
					c-0.1,0-0.3,0-0.4-0.1c-0.3-0.2-0.3-0.6-0.1-0.9c0.4-0.5,0.8-1,1.3-1.4c0.9-0.8,1.9-1.4,3-1.8c0.3-0.1,0.7,0,0.8,0.4
					c0.1,0.3,0,0.7-0.4,0.8c-1,0.4-1.9,0.9-2.7,1.6c-0.4,0.3-0.8,0.7-1.1,1.2C122.5,112,122.3,112.1,122.1,112.1z M136.3,108.5
					C136.3,108.5,136.2,108.5,136.3,108.5c-1.5-0.2-2.8-0.3-4.2-0.3c0,0,0,0,0,0l-0.3,0l-0.3,0l-0.2,0c-0.4,0-0.6-0.3-0.7-0.6
					c0-0.3,0.3-0.6,0.6-0.7l0.3,0l0.3,0l0.3,0c0,0,0,0,0,0c1.4,0,2.9,0.1,4.3,0.3c0.3,0.1,0.6,0.4,0.5,0.7
					C136.9,108.3,136.6,108.5,136.3,108.5z"/>
			</g>
			<g id="XMLID_252_">
				<path id="XMLID_20_" class="st1" d="M102.3,164c-0.2,0-0.3-0.1-0.4-0.2c-0.6-0.6-1.2-1.2-1.8-1.8c-0.2-0.2-0.2-0.6,0-0.8l1.6-2
					c0.2-0.3,0.6-0.3,0.9-0.1c0.3,0.2,0.3,0.6,0.1,0.9l-1.3,1.5c0.4,0.5,0.9,0.9,1.4,1.4c0.3,0.2,0.3,0.6,0,0.9
					C102.7,163.9,102.5,164,102.3,164z"/>
			</g>
			<g id="XMLID_250_">
				<path id="XMLID_9_" class="st1" d="M104.4,157.6c-0.1,0-0.3,0-0.4-0.1c-0.3-0.2-0.3-0.6-0.1-0.9l2.2-2.6
					c0.2-0.3,0.6-0.3,0.9-0.1c0.3,0.2,0.3,0.6,0.1,0.9l-2.2,2.6C104.7,157.5,104.5,157.6,104.4,157.6z"/>
			</g>
		</g>
	</g>
	<g id="XMLID_4_">
		<g id="XMLID_1_">
			<path id="XMLID_247_" class="st2" d="M17.2,32.9l13.8,47.4L42.4,77l-1.1-3.8c-0.6-2.1,0.6-4.3,2.7-4.9s4.3,0.6,4.9,2.7l1.1,3.8
				l17.1-5L66,66c-0.6-2.1,0.6-4.3,2.7-4.9c2.1-0.6,4.3,0.6,4.9,2.7l1.1,3.8L86,64.3L72.2,16.9L17.2,32.9z"/>
		</g>
		<g id="XMLID_2_">
			<path id="XMLID_245_" class="st3" d="M52.9,50.9c-3.7-0.3-7.9-0.8-8.5-1.7l-0.3-1c0.5-0.9,0.7-2.1,0.7-3.3
				c0.6-0.8,0.5-1.9-0.4-2.6l-0.7-2.3c-0.7-2.4-2.5-3.7-5.6-2.8c-3,0.9-3.9,2.9-3.2,5.4l0.7,2.3c-0.4,1,0.1,2,1,2.4
				c0.7,1.1,1.5,1.9,2.4,2.4l0.3,1c0,1.1-3.3,3.8-6.2,6c-0.3,0.2-0.4,0.5-0.3,0.8l0.8,2.6c0.1,0.4,0.5,0.6,1,0.5L53.8,55
				c0.4-0.1,0.6-0.5,0.5-1l-0.8-2.6C53.5,51.1,53.2,50.9,52.9,50.9z"/>
		</g>
		<g id="XMLID_15_">
			<path id="XMLID_134_" class="st1" d="M31.1,81c-0.1,0-0.2,0-0.3-0.1c-0.1-0.1-0.3-0.2-0.3-0.4L16.6,33.1
				c-0.1-0.3,0.1-0.7,0.4-0.8l55-16c0.2,0,0.3,0,0.5,0.1c0.1,0.1,0.3,0.2,0.3,0.4l13.8,47.4c0,0.2,0,0.3-0.1,0.5
				c-0.1,0.1-0.2,0.3-0.4,0.3l-11.4,3.3c-0.3,0.1-0.7-0.1-0.8-0.4L72.9,64c-0.5-1.8-2.4-2.8-4.1-2.3c-1.8,0.5-2.8,2.4-2.3,4.1
				l1.1,3.8c0,0.2,0,0.3-0.1,0.5s-0.2,0.3-0.4,0.3l-17.1,5c-0.2,0-0.3,0-0.5-0.1c-0.1-0.1-0.3-0.2-0.3-0.4l-1.1-3.8
				c-0.5-1.8-2.3-2.8-4.1-2.3c-1.8,0.5-2.8,2.4-2.3,4.1l1.1,3.8c0.1,0.3-0.1,0.7-0.4,0.8l-11.4,3.3C31.2,80.9,31.1,81,31.1,81z
				 M18,33.4l13.5,46.2l10.2-3l-0.9-3.2c-0.7-2.4,0.7-5,3.1-5.7c2.4-0.7,5,0.7,5.7,3.1l0.9,3.2l15.8-4.6l-0.9-3.2
				c-0.7-2.4,0.7-5,3.1-5.7c2.4-0.7,5,0.7,5.7,3.1l0.9,3.2l10.2-3L71.8,17.7L18,33.4z"/>
		</g>
		<g id="XMLID_12_">
			<path id="XMLID_133_" class="st1" d="M55.8,38.8c-0.3,0-0.5-0.2-0.6-0.5c-0.1-0.3,0.1-0.7,0.4-0.8l13.3-3.9
				c0.3-0.1,0.7,0.1,0.8,0.4c0.1,0.3-0.1,0.7-0.4,0.8L56,38.7C55.9,38.8,55.9,38.8,55.8,38.8z"/>
		</g>
		<g id="XMLID_3_">
			<path id="XMLID_132_" class="st1" d="M57.5,44.5c-0.3,0-0.5-0.2-0.6-0.5c-0.1-0.3,0.1-0.7,0.4-0.8l13.3-3.9
				c0.3-0.1,0.7,0.1,0.8,0.4c0.1,0.3-0.1,0.7-0.4,0.8l-13.3,3.9C57.6,44.5,57.5,44.5,57.5,44.5z"/>
		</g>
	</g>
	<g id="XMLID_8_">
		<g id="XMLID_7_">
			<path id="XMLID_234_" class="st2" d="M242.4,52.9c1.1-3.1-0.5-6.5-3.5-7.7l-43-15.8c-3.1-1.1-6.5,0.5-7.7,3.5l-15.8,43
				c-1.1,3.1,0.5,6.5,3.5,7.7l43,15.8c3.1,1.1,6.5-0.5,7.7-3.5L242.4,52.9z"/>
		</g>
		<g id="XMLID_6_">
			<g id="XMLID_5_">
				<g id="XMLID_42_">
					<path id="XMLID_232_" class="st3" d="M224.8,40.1L197.2,30c0,0-6.7-3.2-9.7,4.9c-2.1,5.7-2.1,5.7-2.1,5.7l39.7,14.6l14.2,5.2
						l2.9-7.8c0,0,2.1-5.2-5.5-8C229.2,41.7,224.8,40.1,224.8,40.1z"/>
				</g>
			</g>
			<g id="XMLID_32_">
				<g id="XMLID_41_">
					<path id="XMLID_129_" class="st1" d="M221,100.5c-0.8,0-1.5-0.1-2.3-0.4l-43-15.8c-1.7-0.6-3-1.8-3.7-3.4
						c-0.7-1.6-0.8-3.4-0.2-5.1l15.8-43c0.6-1.7,1.8-3,3.4-3.7c1.6-0.7,3.4-0.8,5.1-0.2l43,15.8c1.7,0.6,3,1.8,3.7,3.4
						c0.7,1.6,0.8,3.4,0.2,5.1l-15.8,43c-0.6,1.7-1.8,3-3.4,3.7C222.9,100.3,222,100.5,221,100.5z M193.8,29.7
						c-0.8,0-1.5,0.2-2.2,0.5c-1.3,0.6-2.3,1.7-2.8,3l-15.8,43c-0.5,1.3-0.4,2.8,0.2,4.1c0.6,1.3,1.7,2.3,3,2.8l43,15.8
						c1.3,0.5,2.8,0.4,4.1-0.2c1.3-0.6,2.3-1.7,2.8-3l15.8-43l0,0c0.5-1.3,0.4-2.8-0.2-4.1c-0.6-1.3-1.7-2.3-3-2.8l-43-15.8
						C195,29.8,194.4,29.7,193.8,29.7z"/>
				</g>
				<g id="XMLID_40_">
					<path id="XMLID_128_" class="st1" d="M239.4,61c-0.1,0-0.1,0-0.2,0l-53.7-19.7c-0.3-0.1-0.5-0.5-0.4-0.8
						c0.1-0.3,0.5-0.5,0.8-0.4l53.7,19.7c0.3,0.1,0.5,0.5,0.4,0.8C239.9,60.8,239.7,61,239.4,61z"/>
				</g>
				<g id="XMLID_39_">
					<path id="XMLID_127_" class="st1" d="M204.2,41.7c-0.2,0-0.3-0.1-0.5-0.2c-0.1-0.1-0.2-0.3-0.2-0.5c0-0.2,0.1-0.3,0.2-0.5
						c0.3-0.2,0.7-0.2,0.9,0c0.2,0.1,0.2,0.3,0.2,0.5c0,0.2-0.1,0.3-0.2,0.5C204.5,41.6,204.4,41.7,204.2,41.7z"/>
				</g>
				<g id="XMLID_38_">
					<path id="XMLID_126_" class="st1" d="M224.9,49.2c-0.2,0-0.3-0.1-0.4-0.2c-0.1-0.1-0.2-0.3-0.2-0.5c0-0.2,0.1-0.3,0.2-0.4
						c0.3-0.3,0.7-0.3,0.9,0c0.1,0.2,0.2,0.3,0.2,0.5c0,0.2-0.1,0.3-0.2,0.5C225.2,49.2,225.1,49.2,224.9,49.2z"/>
				</g>
				<g id="XMLID_37_">
					<path id="XMLID_125_" class="st1" d="M188.8,74.9c-0.4,0-0.9-0.1-1.4-0.2c-3.8-1.1-4.4-4.8-4.4-5c0-0.3,0.2-0.7,0.5-0.7
						c0.3,0,0.7,0.2,0.7,0.5c0,0.1,0.5,3.1,3.5,4c3.4,1,5-3.3,5.1-3.4l4.2-11.3c0.1-0.3,0.5-0.5,0.8-0.4c0.3,0.1,0.5,0.5,0.4,0.8
						l-4.2,11.3C193.5,72.2,191.7,74.9,188.8,74.9z"/>
				</g>
				<g id="XMLID_36_">
					<path id="XMLID_124_" class="st1" d="M204.8,81.1c-0.1,0-0.1,0-0.2,0c-0.3-0.1-0.5-0.5-0.4-0.8l2.6-7.2c0-0.1,0.9-2.3-0.2-4
						c-0.9-1.3-2.8-1.9-5.6-1.9c-0.1,0-0.2,0-0.3,0c-0.3,0-0.6-0.3-0.6-0.6c0-0.4,0.3-0.6,0.6-0.6c3.4,0,5.8,0.8,6.9,2.5
						c1.5,2.2,0.3,5,0.3,5.1l-2.6,7.1C205.3,80.9,205,81.1,204.8,81.1z"/>
				</g>
				<g id="XMLID_35_">
					<path id="XMLID_123_" class="st1" d="M201.4,79.7c-0.8,0-1.7-0.1-2.4-0.4c-2.3-0.8-3.3-2.8-2.7-5.4c0.4-1.5,1.2-2.5,2.4-2.9
						c3.3-1.2,8.5,2.7,8.7,2.8c0.3,0.2,0.3,0.6,0.1,0.9c-0.2,0.3-0.6,0.3-0.9,0.1c-1.3-1-5.3-3.4-7.5-2.7c-0.8,0.3-1.3,0.9-1.6,2
						c-0.6,2.4,0.7,3.4,1.9,3.9c2.2,0.8,5.4,0,6.1-1.5c0.2-0.3,0.5-0.5,0.8-0.3c0.3,0.1,0.5,0.5,0.3,0.8
						C205.9,78.8,203.6,79.7,201.4,79.7z"/>
				</g>
				<g id="XMLID_34_">
					<path id="XMLID_122_" class="st1" d="M210.2,83.1c-0.1,0-0.1,0-0.2,0c-0.3-0.1-0.5-0.5-0.4-0.8l4.3-11.8
						c0.1-0.3,0.5-0.5,0.8-0.4c0.3,0.1,0.5,0.5,0.4,0.8l-4.3,11.8C210.7,82.9,210.5,83.1,210.2,83.1z"/>
				</g>
				<g id="XMLID_33_">
					<path id="XMLID_121_" class="st1" d="M219.8,86.6c-0.1,0-0.1,0-0.2,0c-0.3-0.1-0.5-0.5-0.4-0.8l2.8-7.6c0,0,0.6-1.6-0.1-3
						c-0.4-0.9-1.2-1.6-2.5-2c-4-1.5-5.8,2-5.9,2.1c-0.2,0.3-0.6,0.4-0.9,0.3c-0.3-0.2-0.4-0.5-0.3-0.9c0,0,2.4-4.6,7.4-2.7
						c1.6,0.6,2.6,1.5,3.2,2.7c0.9,1.9,0.1,3.9,0.1,4l-2.8,7.6C220.3,86.4,220.1,86.6,219.8,86.6z"/>
				</g>
			</g>
		</g>
	</g>
	<g id="XMLID_10_">
		<g id="XMLID_18_">
			<g id="XMLID_19_">
				<path id="XMLID_118_" class="st1" d="M144.1,46.6h-25c-0.4,0-0.6-0.3-0.6-0.6V4.4c0-0.3,0.2-0.5,0.4-0.6l4-3.7
					c0.2-0.2,0.6-0.2,0.9,0l3.7,3.4l3.7-3.4c0.2-0.2,0.6-0.2,0.9,0l3.7,3.4l3.7-3.4c0.2-0.2,0.6-0.2,0.9,0l4.1,3.7
					c0.2,0.1,0.3,0.3,0.3,0.5V46C144.7,46.3,144.4,46.6,144.1,46.6z M119.7,45.4h23.7V4.7l-3.6-3.2l-3.7,3.4c-0.2,0.2-0.6,0.2-0.9,0
					l-3.7-3.4l-3.7,3.4c-0.2,0.2-0.6,0.2-0.9,0l-3.7-3.4l-3.6,3.2V45.4z"/>
			</g>
		</g>
		<g id="XMLID_17_">
			<path id="XMLID_117_" class="st1" d="M131.6,25.9c-1.3,0-3.1-0.7-4.4-1.8c-0.3-0.2-0.3-0.6-0.1-0.9c0.2-0.3,0.6-0.3,0.9-0.1
				c1,0.8,2.5,1.5,3.5,1.5c1.6,0,2.8-1.1,2.8-2.4c0-1.1-0.9-1.8-3-2.4c-1.3-0.4-3.9-1.2-3.9-3.7c0-2,1.8-3.7,4.1-3.7
				c1.5,0,2.8,0.7,3.6,1.8c0.2,0.3,0.1,0.7-0.2,0.9c-0.3,0.2-0.7,0.1-0.9-0.2c-0.5-0.8-1.5-1.2-2.5-1.2c-1.6,0-2.8,1.1-2.8,2.4
				c0,1.1,0.9,1.8,3,2.4c1.7,0.5,3.9,1.4,3.9,3.7C135.7,24.2,133.8,25.9,131.6,25.9z"/>
		</g>
		<g id="XMLID_16_">
			<path id="XMLID_116_" class="st1" d="M131.6,13.7c-0.4,0-0.6-0.3-0.6-0.6v-1.7c0-0.4,0.3-0.6,0.6-0.6s0.6,0.3,0.6,0.6v1.7
				C132.2,13.4,131.9,13.7,131.6,13.7z"/>
		</g>
		<g id="XMLID_14_">
			<path id="XMLID_115_" class="st1" d="M131.6,27.6c-0.4,0-0.6-0.3-0.6-0.6v-1.7c0-0.4,0.3-0.6,0.6-0.6s0.6,0.3,0.6,0.6v1.7
				C132.2,27.3,131.9,27.6,131.6,27.6z"/>
		</g>
		<g id="XMLID_13_">
			<path id="XMLID_114_" class="st1" d="M136.3,34h-9.4c-0.4,0-0.6-0.3-0.6-0.6c0-0.4,0.3-0.6,0.6-0.6h9.4c0.4,0,0.6,0.3,0.6,0.6
				C136.9,33.7,136.6,34,136.3,34z"/>
		</g>
		<g id="XMLID_11_">
			<path id="XMLID_113_" class="st1" d="M136.3,38.7h-9.4c-0.4,0-0.6-0.3-0.6-0.6c0-0.4,0.3-0.6,0.6-0.6h9.4c0.4,0,0.6,0.3,0.6,0.6
				C136.9,38.4,136.6,38.7,136.3,38.7z"/>
		</g>
	</g>
</g>
</svg>
