<?xml version="1.0" encoding="iso-8859-1"?>
<!-- Generator: Adobe Illustrator 16.0.0, SVG Export Plug-In . SVG Version: 6.00 Build 0)  -->
<!DOCTYPE svg PUBLIC "-//W3C//DTD SVG 1.1//EN" "http://www.w3.org/Graphics/SVG/1.1/DTD/svg11.dtd">
<svg version="1.1" id="Capa_1" xmlns="http://www.w3.org/2000/svg" xmlns:xlink="http://www.w3.org/1999/xlink" x="0px" y="0px"
	 width="579.668px" height="579.668px" viewBox="0 0 579.668 579.668" style="enable-background:new 0 0 579.668 579.668;"
	 xml:space="preserve">
<g>
	<g id="Waiting_for_Validation">
		<g>
			<path d="M117.994,117.185L80.43,65.527C51.84,91.32,30.752,124.632,17.456,165.719l58.379,18.963
				C85.516,157.8,99.648,135.385,117.994,117.185z M438.443,29.217l1.326-1.834C408.127,13.487,371.072,5.004,328.695,1.826v60.032
				c21.217,2.107,40.869,5.776,58.561,11.389C395.195,57.371,417.391,33.467,438.443,29.217z M59.614,289.798
				c0-11.28,0.563-21.997,1.399-32.441L2.779,238.466C1.09,254.832,0,271.779,0,289.834c0,20.725,1.435,40.034,3.669,58.525
				l58.07-18.854C60.486,316.826,59.614,303.748,59.614,289.798z M254.932,61.403V1.372c-42.758,2.833-79.977,11.189-111.963,24.794
				l37.672,51.804C202.547,69.577,227.05,63.801,254.932,61.403z M460.82,463.282l37.236,51.223
				c27.701-24.721,48.645-56.181,62.158-95.088l-58.344-18.945C492.154,425.374,478.35,446.19,460.82,463.282z M579.141,273.559
				c-16.656,4.178-43.248,5.122-59.469,5.286c0.092,3.669,0.346,7.193,0.346,10.953c0,13.478-0.781,26.156-1.961,38.453
				l58.27,18.909c2.125-18.109,3.342-37.109,3.342-57.344C579.668,284.221,579.305,278.99,579.141,273.559z M19.799,420.597
				c13.932,39.524,35.147,71.784,63.847,96.541l37.345-51.367c-18.382-17.201-32.423-38.744-42.541-64.21L19.799,420.597z
				 M526.357,109.338c-4.359-3.542-27.574-12.715-42.832-3.215c0,0-13.422,12.624-33.422,32.404l-7.064,9.736l-1.562-1.144
				c-16.584,16.565-36.438,36.873-56.672,58.688c-33.512,36.128-67.498,80.757-92.128,114.852l-46.645-66.408
				c-7.901-20.925-25.066-31.551-46.137-23.668c-21.07,7.847-22.251,32.786-14.35,53.729l61.703,127.62
				c0.055,0.128,0.127,0.236,0.182,0.382c2.053,6.611,5.649,12.842,11.135,17.873c16.529,15.149,42.304,14.15,57.562-2.307
				c0,0,60.521-102.663,125.295-172.485c47.662-51.368,89.094-105.278,89.094-105.278
				C541.287,132.188,531.225,113.316,526.357,109.338z M328.695,517.792v60.104c40.615-3.033,75.854-11.461,106.568-24.395
				L397.9,502.117C377.34,509.836,354.471,515.268,328.695,517.792z M147.092,555.265c31.061,12.551,66.934,20.307,107.858,23.031
				V518.21c-26.065-2.234-49.388-7.211-70.24-14.658L147.092,555.265z"/>
		</g>
	</g>
</g>
<g>
</g>
<g>
</g>
<g>
</g>
<g>
</g>
<g>
</g>
<g>
</g>
<g>
</g>
<g>
</g>
<g>
</g>
<g>
</g>
<g>
</g>
<g>
</g>
<g>
</g>
<g>
</g>
<g>
</g>
</svg>
